<?xml version="1.0" encoding="utf-8"?>
<!-- Generator: Adobe Illustrator 17.0.0, SVG Export Plug-In . SVG Version: 6.00 Build 0)  -->
<!DOCTYPE svg PUBLIC "-//W3C//DTD SVG 1.1//EN" "http://www.w3.org/Graphics/SVG/1.1/DTD/svg11.dtd">
<svg version="1.1" xmlns="http://www.w3.org/2000/svg" xmlns:xlink="http://www.w3.org/1999/xlink" x="0px" y="0px" width="40px"
	 height="70px" viewBox="0 0 200 350" enable-background="new 0 0 200 350" xml:space="preserve">
<g id="Layer_10" display="none">
	<path display="inline" d="M81.87,180.201c0,0,23.582-19.258,43.941,0.884S63.961,212.04,81.87,180.201z"/>
	<path display="inline" fill="#326EB6" d="M88.494,178.369c0,0-6.948,4.732-16.55,4.517s11.985,43.586,31.939,41.536
		c19.954-2.05,33.224-33.795,31.606-41.01c0,0-14.613-2.775-17.609-5.804C114.883,174.579,88.494,178.369,88.494,178.369z"/>
	<path display="inline" fill="#233975" d="M88.391,179.518l-3.115,2.15c0,0,19.571,16.622,35.539-1.075l-2.882-1.931L88.391,179.518
		"/>
	<path display="inline" fill="#326EB6" d="M85.042,183.641l-21.423,2.066c0,0-7.611,67.441,38.874,68.049
		s50.368-68.454,50.368-68.454l-28.524-2.633C124.337,182.67,84.545,188.258,85.042,183.641z"/>
	<path display="inline" fill="#122F53" d="M82.883,185.799c0,0,18.002,27.296,41.858,0l1.07,0.305c0,0-19.774,29.363-43.887,1.852
		L82.883,185.799"/>
</g>
<g id="Layer_9" display="none">
	<path display="inline" d="M78.572,181.483c0,0-25.831,3.777-28.636,3.992s-6.689,3.273-6.689,3.273l-3.884,1.51l-11.436,36.214
		l63.653,30.424l6.711-35.387l-2.288-7.552l0.611-14.408L78.572,181.483z"/>
	<path display="inline" fill="#1E1E1E" d="M89.507,175.2c0,0-10.054,4.121-10.27,4.695s-0.665,1.588-0.665,1.588
		s-3.54,8.512-5.035,9.249s18.109,24.299,17.097,28.161c-0.445,1.696,1.702,0.33,1.702,0.33s2.169-20.362,4.279-19.674
		c2.11,0.688-12.089-18.959-12.089-18.959s-0.076-1.756,5.118-4.062S89.507,175.2,89.507,175.2"/>
	<path display="inline" d="M128.089,180.201c0,0,24.405,3.825,27.056,4.044s6.32,3.315,6.32,3.315l3.67,1.53l10.805,36.68
		l-60.14,30.816l-6.341-35.842l2.162-7.649l-0.577-14.594L128.089,180.201z"/>
	<path display="inline" fill="#181919" d="M117.689,174.173c0,0,9.878,3.956,10.096,4.526c0.217,0.57,0.668,1.576,0.668,1.576
		s3.556,8.451,5.026,9.163c1.47,0.712-17.443,24.583-16.411,28.427c0.453,1.688-1.661,0.358-1.661,0.358s-2.345-20.319-4.4-19.596
		s11.614-19.148,11.614-19.148s0.055-1.757-5.05-3.977S117.689,174.173,117.689,174.173"/>
	<path display="inline" d="M74.318,190.977c0,0,4.89-7.444,4.98-10.357l7.218-3.484c0,0-3.675,1.676-3.351,3.065
		c0.324,1.39,11.22,18.22,11.22,18.22s-3.129,11.004-2.805,18.988C91.58,217.409,93.63,216.978,74.318,190.977z"/>
	<path display="inline" d="M112.294,197.882l11.544-17.681c0,0,1.079-0.999-3.884-4.336c-4.963-3.337,6.905,2.797,6.905,2.797
		s3.992,10.984,5.718,11.596c0,0-16.075,22.081-16.183,24.886C116.286,217.949,114.559,199.608,112.294,197.882z"/>
	<path display="inline" fill="#232323" d="M45.998,211.907c0,0,2.6,14.88,1.219,23.785l-1.219-0.583v-9.123V211.907z"/>
	<path display="inline" fill="#232323" d="M158.533,234.689c0,0-1.844-17.927-1.683-22.781c0.162-4.855-0.275,23.785-0.275,23.785
		L158.533,234.689z"/>
	<path display="inline" fill="#232323" d="M42.6,190.258l1.133-1.51c0,0,0.491,4.064,3.077,4.549S41.952,194.178,42.6,190.258z"/>
	<path display="inline" fill="#232323" d="M160.735,189.48c0,0,0.922,2.074-3.18,4.849c-4.102,2.775,2.371,0.581,4.313-3.339
		C163.809,187.071,160.735,189.48,160.735,189.48z"/>
</g>
<g id="Layer_8" display="none">
	<path display="inline" fill="#BB855C" d="M86.516,163.994c0,0,4.166,13.281,0.677,18.783c0,0,15.378,16.83,31.352,0
		c0,0-2.704-12.153,2.271-18.422C125.79,158.087,86.516,163.994,86.516,163.994"/>
</g>
<g id="Layer_4">
	<path fill="#16110B" d="M169.458,193.8l18.412-47.689c0,0-13.292-57.147-33.95-64.766s-8.698,24.764-8.698,24.764
		S183.027,151.606,169.458,193.8"/>
</g>
<g id="Layer_1">
	<g id="XMLID_6_">
		<g>
			<path fill="#D69D65" d="M101.436,78.199c93.711,0.055,73.766,92.508,73.766,92.508s-5.464,98.847-68.193,106.333
				c-65.679-2.022-80.269-106.333-80.269-106.333S8.928,78.145,101.436,78.199z"/>
		</g>
		<g>
		</g>
	</g>
</g>
<g id="Layer_2">
	<path fill="#281C14" d="M163.719,128.564c0,0,5.186,16.561,21.211,23.36l-8.846-28.106
		C176.083,123.818,154.588,103.071,163.719,128.564z"/>
	<path d="M32.131,194.969l-14.808-60.113c0,0,4.029-50.159,21.906-47.622c17.877,2.537-7.119-54.887,125.723-29.526
		c19.956,3.81,19.956-0.952,19.956-0.952s-4.717,13.334-16.146,12.382s17.144,1.905,20.954,38.098c0,0,4.762,12.677,8.572,15.863
		c3.81,3.186-43.813,27.292-83.815,0c0,0,9.524,10.806,13.334,13.663c3.81,2.857-64.766,3.81-78.101-9.524l-9.524,20.954
		l-6.667-8.572C33.515,139.618,29.794,164.6,32.131,194.969z"/>
	<path fill="#281C14" d="M47.728,88.186c0,0,13.531-18.095,38.395-7.542c8.183,3.473,8.183,0.686,8.183,0.686
		s-2.47,4.342-16.411,4.114C63.954,85.215,62.354,80.416,47.728,88.186z"/>
	<path fill="#281C14" d="M44.394,93.901c0,0-17.28,50.941,74.223,43.091C118.617,136.992,43.442,143.428,44.394,93.901z"/>
	<path fill="#281C14" d="M17.323,134.856c0,0,7.263,18.66,10.024,26.192l-5.012-23.234c0,0-2.191-18.673,3.028-26.769
		S18.349,115.807,17.323,134.856z"/>
	<path fill="#281C14" d="M104.322,108.58c0,0,8.773,31.716,66.631,29.234C170.953,137.814,132.331,131.774,104.322,108.58z"/>
</g>
<g id="Layer_3">
	<g id="XMLID_5_">
		<g>
			<path fill="#D69D65" d="M30.645,179.766l9.307,35.246c-1.944,13.622-19.143-6.377-19.143-6.377s-12.917-26.457-9.437-35.595
				C14.84,163.83,30.645,179.766,30.645,179.766z"/>
		</g>
		<g>
		</g>
	</g>
	<g id="XMLID_4_">
		<g>
			<path fill="#D69D65" d="M171.124,180.05l-7.378,35.732c3.144,13.507,20.227-7.419,20.227-7.419s11.956-27.146,7.492-36.088
				C187.008,163.261,171.124,180.05,171.124,180.05z"/>
		</g>
		<g>
		</g>
	</g>
	<path fill="#A37945" d="M173.125,190.006c0,0,6.04-11.794,10.326-10.137s2.381,5.152,2.381,5.152s-4.027-6.061-7.728,4.985
		c0,0,6.029-0.384,2.592,7.235c-3.436,7.62-11.408,8.645-11.408,8.645L173.125,190.006"/>
	<path fill="#A37945" d="M31.57,190.006c0,0-5.489-11.794-9.384-10.137s-2.164,5.152-2.164,5.152s3.659-6.061,7.023,4.985
		c0,0-5.479-0.384-2.356,7.235c3.123,7.62,10.367,8.645,10.367,8.645L31.57,190.006"/>
</g>
<g id="Layer_6">
	<path fill="#A37945" d="M94.398,219.764c0,0,10.133,8.712,19.115,0C113.512,219.764,103.922,223.238,94.398,219.764z"/>
	<path fill="#B85C3B" d="M77.254,238.673c0,0,26.607,33.79,52.861,0C130.114,238.673,108.376,246.225,77.254,238.673z"/>
	<path fill="#C13736" d="M88.504,248.484c0,0,16.899-3.999,31.635,0C120.14,248.484,105.469,259.248,88.504,248.484z"/>
</g>
<g id="Layer_5">
	<path fill="#151311" d="M113.512,168.58c0,0,6.502-7.369,11.703-7.802c5.201-0.433,40.31-7.802,55.481,7.802v8.235h-4.334
		c0,0-0.837,28.174-26.859,29.041c-26.022,0.867-35.991-17.338-35.991-27.307C113.512,168.58,113.512,168.58,113.512,168.58z"/>
	<path fill="#151311" d="M96.573,168.58c0,0-6.432-7.369-11.578-7.802c-5.146-0.433-39.878-7.802-54.886,7.802v8.235h4.288
		c0,0,0.828,28.174,26.571,29.041c25.743,0.867,35.605-17.338,35.605-27.307C96.573,168.58,96.573,168.58,96.573,168.58z"/>
	<path fill="#151311" d="M93.822,167.176c0,0,8.046-3.764,23.216,0s0,6.364,0,6.364s-15.224-6.068-23.216,0
		S93.822,167.176,93.822,167.176z"/>
	<path fill="#D69D65" d="M40.26,170.356c0,0-3.901,33.225,25.573,29.617c29.474-3.608,26.117-29.617,26.117-29.617
		s-2.711-3.64-6.612-4.853C81.437,164.29,42.861,160.384,40.26,170.356z"/>
	<path fill="#D69D65" d="M170.781,170.644c0,0,3.928,33.225-25.75,29.617c-29.678-3.608-26.297-29.617-26.297-29.617
		s2.73-3.64,6.658-4.853C129.319,164.578,168.162,160.672,170.781,170.644z"/>
	<circle fill="#15100B" cx="66.078" cy="181.987" r="8.019"/>
	<circle fill="#97BEC4" cx="69.653" cy="177.787" r="2.082"/>
	<circle cx="66.078" cy="181.987" r="3.034"/>
	<circle fill="#15100B" cx="144.785" cy="181.987" r="8.019"/>
	<circle fill="#97BEC4" cx="148.361" cy="177.787" r="2.082"/>
	<circle cx="144.785" cy="181.987" r="3.034"/>
</g>
<g id="Layer_7">
	<path fill="#281C14" d="M43.095,156.048c0,0,16.419-15.749,43.921-4.124c0,0-2.676,1.981-6.16,1.624
		C77.373,153.191,60.25,147.476,43.095,156.048z"/>
	<path fill="#281C14" d="M167.801,156.048c0,0-17.208-15.749-46.031-4.124c0,0,2.805,1.981,6.456,1.624
		C131.876,153.191,149.821,147.476,167.801,156.048z"/>
</g>
</svg>
