<?xml version="1.0" encoding="UTF-8"?>
<svg xmlns="http://www.w3.org/2000/svg" xmlns:xlink="http://www.w3.org/1999/xlink" width="48pt" height="48pt" viewBox="0 0 48 48" version="1.1">
<defs>
<linearGradient id="linear0" gradientUnits="userSpaceOnUse" x1="35.47142" y1="35.76167" x2="136.82242" y2="137.11267" gradientTransform="matrix(0.27907,0,0,0.27907,0,0)">
<stop offset="0" style="stop-color:rgb(85.098039%,87.843137%,12.941176%);stop-opacity:1;"/>
<stop offset="1" style="stop-color:rgb(98.431373%,52.941176%,16.862745%);stop-opacity:1;"/>
</linearGradient>
<filter id="alpha" filterUnits="objectBoundingBox" x="0%" y="0%" width="100%" height="100%">
  <feColorMatrix type="matrix" in="SourceGraphic" values="0 0 0 0 1 0 0 0 0 1 0 0 0 0 1 0 0 0 1 0"/>
</filter>
<mask id="mask0">
  <g filter="url(#alpha)">
<rect x="0" y="0" width="48" height="48" style="fill:rgb(0%,0%,0%);fill-opacity:0.0509804;stroke:none;"/>
  </g>
</mask>
<clipPath id="clip1">
  <rect width="48" height="48"/>
</clipPath>
<g id="surface1005613" clip-path="url(#clip1)">
<path style=" stroke:none;fill-rule:nonzero;fill:rgb(0%,0%,0%);fill-opacity:1;" d="M 22 36 L 26 36 C 26.550781 36 27 35.550781 27 35 L 27 20 C 27 19.449219 26.550781 19 26 19 L 22 19 C 21.449219 19 21 19.449219 21 20 L 21 35 C 21 35.550781 21.449219 36 22 36 Z M 22 36 "/>
</g>
<mask id="mask1">
  <g filter="url(#alpha)">
<rect x="0" y="0" width="48" height="48" style="fill:rgb(0%,0%,0%);fill-opacity:0.0705882;stroke:none;"/>
  </g>
</mask>
<clipPath id="clip2">
  <rect width="48" height="48"/>
</clipPath>
<g id="surface1005616" clip-path="url(#clip2)">
<path style=" stroke:none;fill-rule:nonzero;fill:rgb(0%,0%,0%);fill-opacity:1;" d="M 22.226562 35.5 L 25.773438 35.5 C 26.175781 35.5 26.5 35.175781 26.5 34.773438 L 26.5 20.226562 C 26.5 19.824219 26.175781 19.5 25.773438 19.5 L 22.226562 19.5 C 21.824219 19.5 21.5 19.824219 21.5 20.226562 L 21.5 34.773438 C 21.5 35.175781 21.824219 35.5 22.226562 35.5 Z M 22.226562 35.5 "/>
</g>
<mask id="mask2">
  <g filter="url(#alpha)">
<rect x="0" y="0" width="48" height="48" style="fill:rgb(0%,0%,0%);fill-opacity:0.14902;stroke:none;"/>
  </g>
</mask>
<radialGradient id="radial0" gradientUnits="userSpaceOnUse" cx="85.99713" cy="55.18907" fx="85.99713" fy="55.18907" r="14.2915" gradientTransform="matrix(0.999999,0,0,0.999999,0,0)">
<stop offset="0.516" style="stop-color:rgb(91.764706%,93.333333%,51.372549%);stop-opacity:1;"/>
<stop offset="1" style="stop-color:rgb(99.215686%,77.254902%,60%);stop-opacity:1;"/>
</radialGradient>
<clipPath id="clip3">
  <rect width="48" height="48"/>
</clipPath>
<g id="surface1005619" clip-path="url(#clip3)">
<path style=" stroke:none;fill-rule:nonzero;fill:url(#radial0);" d="M 27.988281 15.402344 C 27.988281 13.410156 26.203125 11.792969 24 11.792969 C 21.796875 11.792969 20.011719 13.410156 20.011719 15.402344 C 20.011719 17.394531 21.796875 19.011719 24 19.011719 C 26.203125 19.011719 27.988281 17.394531 27.988281 15.402344 Z M 27.988281 15.402344 "/>
</g>
</defs>
<g id="surface1005608">
<path style=" stroke:none;fill-rule:nonzero;fill:url(#linear0);" d="M 44.039062 24.121094 C 44.039062 35.167969 35.085938 44.121094 24.039062 44.121094 C 12.996094 44.121094 4.039062 35.167969 4.039062 24.121094 C 4.039062 13.078125 12.996094 4.121094 24.039062 4.121094 C 35.085938 4.121094 44.039062 13.078125 44.039062 24.121094 Z M 44.039062 24.121094 "/>
<use xlink:href="#surface1005613" mask="url(#mask0)"/>
<use xlink:href="#surface1005616" mask="url(#mask1)"/>
<use xlink:href="#surface1005619" mask="url(#mask2)"/>
<path style=" stroke:none;fill-rule:nonzero;fill:rgb(100%,100%,100%);fill-opacity:1;" d="M 24 17.730469 C 25.699219 17.730469 26.648438 16.664062 26.648438 15.34375 C 26.648438 14.023438 25.648438 13 24 13 C 22.351562 13 21.351562 14.023438 21.351562 15.34375 C 21.351562 16.664062 22.300781 17.730469 24 17.730469 Z M 24 17.730469 "/>
<path style=" stroke:none;fill-rule:nonzero;fill:rgb(100%,100%,100%);fill-opacity:1;" d="M 22 20 L 26 20 L 26 35 L 22 35 Z M 22 20 "/>
</g>
</svg>
