<?xml version="1.0" encoding="utf-8"?>
<!-- Generator: Adobe Illustrator 17.0.0, SVG Export Plug-In . SVG Version: 6.00 Build 0)  -->
<!DOCTYPE svg PUBLIC "-//W3C//DTD SVG 1.1//EN" "http://www.w3.org/Graphics/SVG/1.1/DTD/svg11.dtd">
<svg version="1.1" xmlns="http://www.w3.org/2000/svg" xmlns:xlink="http://www.w3.org/1999/xlink" x="0px" y="0px" width="300px"
	 height="525px" viewBox="0 0 200 350" enable-background="new 0 0 200 350" xml:space="preserve">
<g id="Layer_10">
	<path d="M81.87,180.201c0,0,23.582-19.258,43.941,0.884S63.961,212.04,81.87,180.201z"/>
	<path fill="#326EB6" d="M88.494,178.369c0,0-6.948,4.732-16.55,4.517s11.985,43.586,31.939,41.536
		c19.954-2.05,33.224-33.795,31.606-41.01c0,0-14.613-2.775-17.609-5.804C114.883,174.579,88.494,178.369,88.494,178.369z"/>
	<path fill="#233975" d="M88.391,179.518l-3.115,2.15c0,0,19.571,16.622,35.539-1.075l-2.882-1.931L88.391,179.518"/>
	<path fill="#326EB6" d="M85.042,183.641l-21.423,2.066c0,0-7.611,67.441,38.874,68.049s50.368-68.454,50.368-68.454l-28.524-2.633
		C124.337,182.67,84.545,188.258,85.042,183.641z"/>
	<path fill="#122F53" d="M82.883,185.799c0,0,18.002,27.296,41.858,0l1.07,0.305c0,0-19.774,29.363-43.887,1.852L82.883,185.799"/>
</g>
<g id="Layer_9">
	<path d="M78.572,181.483c0,0-25.831,3.777-28.636,3.992s-6.689,3.273-6.689,3.273l-3.884,1.51l-11.436,36.214l63.653,30.424
		l6.711-35.387l-2.288-7.552l0.611-14.408L78.572,181.483z"/>
	<path fill="#1E1E1E" d="M89.507,175.2c0,0-10.054,4.121-10.27,4.695s-0.665,1.588-0.665,1.588s-3.54,8.512-5.035,9.249
		s18.109,24.299,17.097,28.161c-0.445,1.696,1.702,0.33,1.702,0.33s2.169-20.362,4.279-19.674
		c2.11,0.688-12.089-18.959-12.089-18.959s-0.076-1.756,5.118-4.062S89.507,175.2,89.507,175.2"/>
	<path d="M128.089,180.201c0,0,24.405,3.825,27.056,4.044s6.32,3.315,6.32,3.315l3.67,1.53l10.805,36.68l-60.14,30.816
		l-6.341-35.842l2.162-7.649l-0.577-14.594L128.089,180.201z"/>
	<path fill="#181919" d="M117.689,174.173c0,0,9.878,3.956,10.096,4.526c0.217,0.57,0.668,1.576,0.668,1.576
		s3.556,8.451,5.026,9.163c1.47,0.712-17.443,24.583-16.411,28.427c0.453,1.688-1.661,0.358-1.661,0.358s-2.345-20.319-4.4-19.596
		s11.614-19.148,11.614-19.148s0.055-1.757-5.05-3.977S117.689,174.173,117.689,174.173"/>
	<path d="M74.318,190.977c0,0,4.89-7.444,4.98-10.357l7.218-3.484c0,0-3.675,1.676-3.351,3.065c0.324,1.39,11.22,18.22,11.22,18.22
		s-3.129,11.004-2.805,18.988C91.58,217.409,93.63,216.978,74.318,190.977z"/>
	<path d="M112.294,197.882l11.544-17.681c0,0,1.079-0.999-3.884-4.336c-4.963-3.337,6.905,2.797,6.905,2.797
		s3.992,10.984,5.718,11.596c0,0-16.075,22.081-16.183,24.886C116.286,217.949,114.559,199.608,112.294,197.882z"/>
	<path fill="#232323" d="M45.998,211.907c0,0,2.6,14.88,1.219,23.785l-1.219-0.583v-9.123V211.907z"/>
	<path fill="#232323" d="M158.533,234.689c0,0-1.844-17.927-1.683-22.781c0.162-4.855-0.275,23.785-0.275,23.785L158.533,234.689z"
		/>
	<path fill="#232323" d="M42.6,190.258l1.133-1.51c0,0,0.491,4.064,3.077,4.549S41.952,194.178,42.6,190.258z"/>
	<path fill="#232323" d="M160.735,189.48c0,0,0.922,2.074-3.18,4.849c-4.102,2.775,2.371,0.581,4.313-3.339
		C163.809,187.071,160.735,189.48,160.735,189.48z"/>
</g>
<g id="Layer_8">
	<path fill="#BB855C" d="M86.516,163.994c0,0,4.166,13.281,0.677,18.783c0,0,15.378,16.83,31.352,0c0,0-2.704-12.153,2.271-18.422
		C125.79,158.087,86.516,163.994,86.516,163.994"/>
</g>
<g id="Layer_4">
	<path fill="#16110B" d="M133.356,134.504l8.342-21.607c0,0-6.023-25.893-15.382-29.345s-3.941,11.22-3.941,11.22
		S139.505,115.386,133.356,134.504"/>
</g>
<g id="Layer_1">
	<g id="XMLID_1_">
		<g>
			<path fill="#D69D65" d="M102.537,82.127c42.459,0.025,33.423,41.915,33.423,41.915s-2.476,44.786-30.897,48.178
				c-29.759-0.916-36.369-48.178-36.369-48.178S60.622,82.102,102.537,82.127z"/>
		</g>
		<g>
		</g>
	</g>
</g>
<g id="Layer_2">
	<path fill="#281C14" d="M130.756,104.946c0,0,2.35,7.504,9.61,10.584l-4.008-12.734
		C136.358,102.796,126.619,93.396,130.756,104.946z"/>
	<path d="M71.135,135.034l-6.709-27.237c0,0,1.825-22.727,9.925-21.577c8.1,1.15-3.225-24.869,56.964-13.378
		c9.042,1.726,9.042-0.432,9.042-0.432s-2.137,6.042-7.316,5.61c-5.179-0.432,7.768,0.863,9.494,17.262c0,0,2.158,5.744,3.884,7.187
		c1.726,1.444-19.851,12.366-37.976,0c0,0,4.315,4.896,6.042,6.19c1.726,1.295-29.345,1.726-35.387-4.315l-4.315,9.494l-3.021-3.884
		C71.762,109.955,70.077,121.274,71.135,135.034z"/>
	<path fill="#281C14" d="M78.202,86.652c0,0,6.131-8.199,17.396-3.417c3.708,1.574,3.708,0.311,3.708,0.311
		s-1.119,1.967-7.435,1.864C85.554,85.305,84.829,83.131,78.202,86.652z"/>
	<path fill="#281C14" d="M76.691,89.241c0,0-7.829,23.081,33.63,19.524C110.321,108.765,76.26,111.681,76.691,89.241z"/>
	<path fill="#281C14" d="M64.426,107.797c0,0,3.291,8.455,4.542,11.867l-2.271-10.527c0,0-0.993-8.461,1.372-12.129
		C70.434,93.341,64.891,99.166,64.426,107.797z"/>
	<path fill="#281C14" d="M103.844,95.892c0,0,3.975,14.37,30.19,13.246C134.034,109.137,116.535,106.401,103.844,95.892z"/>
</g>
<g id="Layer_3">
	<g id="XMLID_2_">
		<g>
			<path fill="#D69D65" d="M70.462,128.145l4.217,15.97c-0.881,6.172-8.674-2.889-8.674-2.889s-5.853-11.987-4.276-16.128
				C63.301,120.925,70.462,128.145,70.462,128.145z"/>
		</g>
		<g>
		</g>
	</g>
	<g id="XMLID_3_">
		<g>
			<path fill="#D69D65" d="M134.111,128.274l-3.343,16.19c1.424,6.12,9.165-3.362,9.165-3.362s5.417-12.299,3.395-16.351
				C141.308,120.667,134.111,128.274,134.111,128.274z"/>
		</g>
		<g>
		</g>
	</g>
	<path fill="#A37945" d="M135.018,132.785c0,0,2.737-5.344,4.678-4.593c1.942,0.751,1.079,2.334,1.079,2.334
		s-1.825-2.746-3.502,2.258c0,0,2.732-0.174,1.175,3.278s-5.169,3.917-5.169,3.917L135.018,132.785"/>
	<path fill="#A37945" d="M70.881,132.785c0,0-2.487-5.344-4.252-4.593c-1.765,0.751-0.98,2.334-0.98,2.334s1.658-2.746,3.182,2.258
		c0,0-2.482-0.174-1.067,3.278s4.697,3.917,4.697,3.917L70.881,132.785"/>
</g>
<g id="Layer_6">
	<path fill="#A37945" d="M99.347,146.268c0,0,4.591,3.947,8.661,0C108.008,146.268,103.663,147.842,99.347,146.268z"/>
	<path fill="#B85C3B" d="M91.58,154.835c0,0,12.055,15.31,23.951,0C115.53,154.835,105.681,158.257,91.58,154.835z"/>
	<path fill="#C13736" d="M96.677,159.281c0,0,7.657-1.812,14.334,0C111.011,159.281,104.364,164.158,96.677,159.281z"/>
</g>
<g id="Layer_5">
	<path fill="#151311" d="M108.008,123.077c0,0,2.946-3.339,5.303-3.535c2.357-0.196,18.264-3.535,25.138,3.535v3.731h-1.964
		c0,0-0.379,12.765-12.169,13.158s-16.307-7.856-16.307-12.373C108.008,123.077,108.008,123.077,108.008,123.077z"/>
	<path fill="#151311" d="M100.333,123.077c0,0-2.914-3.339-5.246-3.535c-2.331-0.196-18.068-3.535-24.868,3.535v3.731h1.943
		c0,0,0.375,12.765,12.039,13.158s16.132-7.856,16.132-12.373C100.333,123.077,100.333,123.077,100.333,123.077z"/>
	<path fill="#151311" d="M99.087,122.441c0,0,3.645-1.705,10.519,0s0,2.884,0,2.884s-6.898-2.749-10.519,0
		S99.087,122.441,99.087,122.441z"/>
	<path fill="#D69D65" d="M74.818,123.882c0,0-1.768,15.054,11.587,13.419s11.833-13.419,11.833-13.419s-1.228-1.649-2.996-2.199
		C93.475,121.134,75.997,119.363,74.818,123.882z"/>
	<path fill="#D69D65" d="M133.956,124.012c0,0,1.78,15.054-11.667,13.419s-11.915-13.419-11.915-13.419s1.237-1.649,3.016-2.199
		C115.17,121.264,132.77,119.494,133.956,124.012z"/>
	<circle fill="#15100B" cx="86.516" cy="129.152" r="3.633"/>
	<circle fill="#97BEC4" cx="88.136" cy="127.249" r="0.943"/>
	<circle cx="86.516" cy="129.152" r="1.375"/>
	<circle fill="#15100B" cx="122.178" cy="129.152" r="3.633"/>
	<circle fill="#97BEC4" cx="123.798" cy="127.249" r="0.943"/>
	<circle cx="122.178" cy="129.152" r="1.375"/>
</g>
<g id="Layer_7">
	<path fill="#281C14" d="M76.103,117.399c0,0,7.439-7.135,19.9-1.869c0,0-1.212,0.898-2.791,0.736
		C91.634,116.104,83.876,113.515,76.103,117.399z"/>
	<path fill="#281C14" d="M132.606,117.399c0,0-7.797-7.135-20.856-1.869c0,0,1.271,0.898,2.925,0.736
		C116.329,116.104,124.459,113.515,132.606,117.399z"/>
</g>
</svg>
