<?xml version="1.0" encoding="UTF-8"?>
<svg xmlns="http://www.w3.org/2000/svg" xmlns:xlink="http://www.w3.org/1999/xlink" width="52pt" height="52pt" viewBox="0 0 52 52" version="1.1">
<g id="surface1162125">
<path style=" stroke:none;fill-rule:nonzero;fill:rgb(90.196078%,49.411765%,13.333333%);fill-opacity:1;" d="M 22.9375 1.9375 L 21.8125 9.0625 C 20.101562 9.484375 18.46875 10.117188 17 11 L 11.125 6.8125 L 6.875 11.0625 L 11 16.9375 C 10.109375 18.414062 9.429688 20.03125 9 21.75 L 1.9375 22.9375 L 1.9375 28.9375 L 9 30.1875 C 9.429688 31.90625 10.109375 33.523438 11 35 L 6.8125 40.875 L 11.0625 45.125 L 16.9375 41 C 18.40625 41.882812 20.039062 42.515625 21.75 42.9375 L 22.9375 50.0625 L 28.9375 50.0625 L 30.25 42.9375 C 31.953125 42.507812 33.539062 41.828125 35 40.9375 L 40.9375 45.125 L 45.1875 40.875 L 40.9375 35 C 41.8125 33.539062 42.515625 31.945312 42.9375 30.25 L 50.0625 28.9375 L 50.0625 22.9375 L 42.9375 21.75 C 42.515625 20.054688 41.8125 18.460938 40.9375 17 L 45.125 11.0625 L 40.875 6.8125 L 35 11.0625 C 33.539062 10.179688 31.898438 9.492188 30.1875 9.0625 L 28.9375 1.9375 Z M 26 12.9375 C 33.210938 12.9375 39.0625 18.789062 39.0625 26 C 39.0625 33.210938 33.210938 39.0625 26 39.0625 C 18.789062 39.0625 12.9375 33.203125 12.9375 26 C 12.9375 18.796875 18.789062 12.9375 26 12.9375 Z M 26 16.125 C 20.5625 16.125 16.125 20.5625 16.125 26 C 16.125 31.4375 20.5625 35.875 26 35.875 C 31.4375 35.875 35.875 31.4375 35.875 26 C 35.875 20.5625 31.4375 16.125 26 16.125 Z M 25.9375 21.875 C 28.226562 21.875 30.125 23.703125 30.125 26 C 30.125 28.289062 28.226562 30.125 25.9375 30.125 C 23.648438 30.125 21.8125 28.289062 21.8125 26 C 21.8125 23.703125 23.648438 21.875 25.9375 21.875 Z M 25.9375 21.875 "/>
</g>
</svg>
